<svg width="130" height="35" viewBox="0 0 34.131 9.2604" xmlns="http://www.w3.org/2000/svg"><g fill="#858585" stroke="#858585" stroke-width=".1" aria-label="ECONOMICS"><path d="m1.3315 8.5517V4.7638h2.8086v.64079H2.0963v.83974H3.998v.6382H2.0963v1.0309h2.1162v.6382z"></path><path d="m7.2846 7.1591.74156.23513q-.17053.62012-.56844.92242-.39532.29972-1.0051.29972-.75448.0-1.2402-.51418-.48576-.51676-.48576-1.4108.0-.94568.48834-1.4676.48834-.52452 1.2842-.52452.69505.0 1.1291.41083.25838.24288.38757.69763l-.75706.18087q-.067179-.29456-.28164-.46509-.21187-.17053-.51676-.17053-.42116.0-.68471.30231-.26097.30231-.26097.97927.0.7183.25838 1.0232.25838.30489.67179.30489.30489.0.52452-.19379.21962-.19379.31523-.60978z"></path><path d="m8.5275 6.681q0-.57878.17312-.97152.12919-.28939.3514-.51935.22479-.22996.49093-.34106.35398-.14986.81649-.14986.83716.0 1.3384.51935.50385.51935.50385 1.4444.0.91726-.49868 1.4366-.49868.51676-1.3333.51676-.84491.0-1.3436-.51418-.49868-.51676-.49868-1.4211zm.78807-.025838q0 .64337.29714.97669.29714.33073.75448.33073t.74931-.32815q.29456-.33073.29456-.9896.0-.65112-.2868-.97152-.28422-.32039-.75706-.32039t-.76223.32556q-.28939.32298-.28939.97669z"></path><path d="m12.806 8.5517V4.7638h.74414l1.5503 2.5296V4.7638h.71055v3.7879h-.7674l-1.527-2.4701v2.4701z"></path><path d="m16.465 6.681q0-.57878.17312-.97152.12919-.28939.3514-.51935.22479-.22996.49093-.34106.35398-.14986.81649-.14986.83716.0 1.3384.51935.50384.51935.50384 1.4444.0.91726-.49868 1.4366-.49868.51676-1.3333.51676-.84491.0-1.3436-.51418-.49868-.51676-.49868-1.4211zm.78807-.025838q0 .64337.29714.97669.29714.33073.75448.33073t.74931-.32815q.29456-.33073.29456-.9896.0-.65112-.2868-.97152-.28422-.32039-.75706-.32039t-.76223.32556q-.28939.32298-.28939.97669z"></path><path d="m20.726 8.5517V4.7638h1.1446l.6873 2.5838.67955-2.5838h1.1472v3.7879h-.71055V5.57l-.75189 2.9817h-.73639L21.43651 5.57v2.9817z"></path><path d="m25.121 8.5517V4.7638h.76481v3.7879z"></path><path d="m29.038 7.1591.74156.23513q-.17053.62012-.56844.92242-.39532.29972-1.0051.29972-.75448.0-1.2402-.51418-.48576-.51676-.48576-1.4108.0-.94568.48834-1.4676.48834-.52452 1.2842-.52452.69505.0 1.1291.41083.25838.24288.38757.69763l-.75706.18087q-.06718-.29456-.28164-.46509-.21187-.17053-.51676-.17053-.42116.0-.68471.30231-.26097.30231-.26097.97927.0.7183.25838 1.0232.25838.30489.67179.30489.30489.0.52452-.19379.21962-.19379.31523-.60978z"></path><path d="m30.242 7.3193.74414-.072347q.06718.37465.2713.55035.2067.1757.55552.1757.36949.0.55552-.15503.18862-.15761.18862-.3669.0-.13436-.0801-.22738-.077514-.095602-.27388-.16536-.13436-.046509-.61237-.16536-.61495-.15245-.863-.37465-.34882-.31264-.34882-.76223.0-.28939.16278-.54002.16536-.25321.47284-.38499.31006-.13178.74672-.13178.71314.0 1.0723.31264.36174.31264.37982.83457l-.76481.03359q-.04909-.29197-.21187-.41858-.1602-.12919-.48317-.12919-.33331.0-.52193.13694-.12144.08785-.12144.23513.0.13436.11369.22996.14469.12144.7028.25321t.82424.27389q.26872.13953.41858.38499.15244.24288.15244.60203.0.32556-.18087.60978t-.5116.42375q-.33073.13694-.82424.13694-.7183.0-1.1033-.33073-.38499-.33331-.45992-.96893z"></path></g><g fill="#ddd" stroke="#ddd" stroke-width=".1" aria-label="TRADING"><path d="m1.4629 4.2437V1.4113H.4513V.83459h2.7091v.57671H2.1512v2.8324z"></path><path d="m3.607 4.2437V.8346h1.4487q.54648.0.79297.093018.24882.090692.39765.32556.14883.23487.14883.53718.0.3837-.22557.63484-.22557.24882-.67438.31393.22324.13022.36742.28603.1465.1558.393.55345l.41625.66508h-.82321l-.49764-.74182q-.2651-.39765-.36277-.49997-.097668-.10464-.20696-.14185-.1093-.039532-.34649-.039532h-.13953v1.4232zm.68833-1.9673h.50927q.49532.0.61857-.041858t.19301-.14418q.069763-.10232.069763-.2558.0-.17208-.093018-.27673-.090692-.10697-.25812-.13488-.083716-.011627-.50229-.011627h-.53718z"></path>
<path d="m10.118 4.2437h-.74879l-.29766-.77437h-1.3627l-.28138.77437h-.73019L8.02508.8346h.72786zM8.8506 2.8949l-.46974-1.265-.46044 1.265z"></path><path d="m10.481.8346h1.2581q.42556.0.6488.065112.29998.088367.51392.31393.21394.22557.32556.55345.11162.32556.11162.8046.0.4209-.10464.72554-.1279.37207-.36509.60229-.17906.17441-.48369.27208-.22789.072089-.60926.072089h-1.2953zm.68833.57671v2.258h.51392q.28835.0.41625-.032556.16743-.041858.27673-.14185.11162-.099994.18138-.32789.06976-.23022.06976-.62554t-.06976-.60694-.19534-.33021q-.12557-.1186-.31858-.16046-.14418-.032556-.56508-.032556z"></path><path d="m13.902 4.2437V.8346h.68833v3.4091z"></path><path d="m15.253 4.2437V.8346h.66973l1.3953 2.2766V.8346h.6395v3.4091h-.69066l-1.3743-2.2231v2.2231z"></path><path d="m20.271 2.9903v-.57438h1.4836v1.3581q-.21627.20929-.62787.36974-.40928.15813-.83018.15813-.53485.0-.9325-.22324-.39765-.22557-.59764-.64182-.19999-.41858-.19999-.90925.0-.53253.22324-.94645.22324-.41393.65345-.63484.32789-.16976.81623-.16976.63484.0.99064.26743.35812.2651.46044.73484l-.68368.1279q-.072088-.25115-.27208-.39532-.19766-.1465-.49532-.1465-.45114.0-.71856.28603-.2651.28603-.2651.84879.0.60694.26975.91157.26975.30231.70693.30231.21627.0.43253-.083716.21859-.086041.3744-.20696v-.43253z"></path></g></svg>